<svg width="19" height="22" viewBox="0 0 19 22" fill="none" xmlns="http://www.w3.org/2000/svg">
<path d="M15.1664 20.8511C16.7312 20.8511 17.9997 19.518 17.9997 17.8734C17.9997 16.2289 16.7312 14.8958 15.1664 14.8958C13.6015 14.8958 12.333 16.2289 12.333 17.8734C12.333 19.518 13.6015 20.8511 15.1664 20.8511Z" stroke="#2D2D2D" stroke-width="2" stroke-linecap="round" stroke-linejoin="round"/>
<path d="M15.1664 6.95532C16.7312 6.95532 17.9997 5.62217 17.9997 3.97766C17.9997 2.33315 16.7312 1 15.1664 1C13.6015 1 12.333 2.33315 12.333 3.97766C12.333 5.62217 13.6015 6.95532 15.1664 6.95532Z" stroke="#2D2D2D" stroke-width="2" stroke-linecap="round" stroke-linejoin="round"/>
<path d="M3.83336 13.9032C5.39817 13.9032 6.66671 12.5701 6.66671 10.9255C6.66671 9.28097 5.39817 7.94788 3.83336 7.94788C2.26854 7.94788 1 9.28097 1 10.9255C1 12.5701 2.26854 13.9032 3.83336 13.9032Z" stroke="#2D2D2D" stroke-width="2" stroke-linecap="round" stroke-linejoin="round"/>
<path d="M12.8055 5.46643L6.19434 9.43664" stroke="#2D2D2D" stroke-width="2"/>
<path d="M6.19434 12.4143L12.8055 16.3845" stroke="#2D2D2D" stroke-width="2"/>
</svg>
